<mxfile host="app.diagrams.net" agent="Mozilla/5.0 (Windows NT 10.0; Win64; x64) AppleWebKit/537.36 (KHTML, like Gecko) Chrome/131.0.0.0 Safari/537.36 Edg/131.0.0.0" version="25.0.3">
  <diagram id="C5RBs43oDa-KdzZeNtuy" name="Page-1">
    <mxGraphModel dx="1042" dy="565" grid="1" gridSize="10" guides="1" tooltips="1" connect="1" arrows="1" fold="1" page="1" pageScale="1" pageWidth="827" pageHeight="1169" math="0" shadow="0">
      <root>
        <mxCell id="WIyWlLk6GJQsqaUBKTNV-0" />
        <mxCell id="WIyWlLk6GJQsqaUBKTNV-1" parent="WIyWlLk6GJQsqaUBKTNV-0" />
        <mxCell id="VIZ2GZ5ep7-sa7ZNbd8o-2" value="" style="edgeStyle=orthogonalEdgeStyle;rounded=0;orthogonalLoop=1;jettySize=auto;html=1;" edge="1" parent="WIyWlLk6GJQsqaUBKTNV-1" source="VIZ2GZ5ep7-sa7ZNbd8o-0" target="VIZ2GZ5ep7-sa7ZNbd8o-1">
          <mxGeometry relative="1" as="geometry" />
        </mxCell>
        <mxCell id="VIZ2GZ5ep7-sa7ZNbd8o-0" value="START" style="ellipse;whiteSpace=wrap;html=1;" vertex="1" parent="WIyWlLk6GJQsqaUBKTNV-1">
          <mxGeometry x="350" y="40" width="120" height="80" as="geometry" />
        </mxCell>
        <mxCell id="VIZ2GZ5ep7-sa7ZNbd8o-4" value="" style="edgeStyle=orthogonalEdgeStyle;rounded=0;orthogonalLoop=1;jettySize=auto;html=1;" edge="1" parent="WIyWlLk6GJQsqaUBKTNV-1" source="VIZ2GZ5ep7-sa7ZNbd8o-1" target="VIZ2GZ5ep7-sa7ZNbd8o-3">
          <mxGeometry relative="1" as="geometry" />
        </mxCell>
        <mxCell id="VIZ2GZ5ep7-sa7ZNbd8o-6" value="" style="edgeStyle=orthogonalEdgeStyle;rounded=0;orthogonalLoop=1;jettySize=auto;html=1;" edge="1" parent="WIyWlLk6GJQsqaUBKTNV-1" source="VIZ2GZ5ep7-sa7ZNbd8o-1" target="VIZ2GZ5ep7-sa7ZNbd8o-5">
          <mxGeometry relative="1" as="geometry" />
        </mxCell>
        <mxCell id="VIZ2GZ5ep7-sa7ZNbd8o-7" value="" style="edgeStyle=orthogonalEdgeStyle;rounded=0;orthogonalLoop=1;jettySize=auto;html=1;" edge="1" parent="WIyWlLk6GJQsqaUBKTNV-1" source="VIZ2GZ5ep7-sa7ZNbd8o-1" target="VIZ2GZ5ep7-sa7ZNbd8o-5">
          <mxGeometry relative="1" as="geometry" />
        </mxCell>
        <mxCell id="VIZ2GZ5ep7-sa7ZNbd8o-9" value="" style="edgeStyle=orthogonalEdgeStyle;rounded=0;orthogonalLoop=1;jettySize=auto;html=1;" edge="1" parent="WIyWlLk6GJQsqaUBKTNV-1" source="VIZ2GZ5ep7-sa7ZNbd8o-1" target="VIZ2GZ5ep7-sa7ZNbd8o-8">
          <mxGeometry relative="1" as="geometry" />
        </mxCell>
        <mxCell id="VIZ2GZ5ep7-sa7ZNbd8o-1" value="Nhập n" style="whiteSpace=wrap;html=1;" vertex="1" parent="WIyWlLk6GJQsqaUBKTNV-1">
          <mxGeometry x="350" y="210" width="120" height="60" as="geometry" />
        </mxCell>
        <mxCell id="VIZ2GZ5ep7-sa7ZNbd8o-13" style="edgeStyle=orthogonalEdgeStyle;rounded=0;orthogonalLoop=1;jettySize=auto;html=1;entryX=0;entryY=0.5;entryDx=0;entryDy=0;" edge="1" parent="WIyWlLk6GJQsqaUBKTNV-1" source="VIZ2GZ5ep7-sa7ZNbd8o-3" target="VIZ2GZ5ep7-sa7ZNbd8o-10">
          <mxGeometry relative="1" as="geometry" />
        </mxCell>
        <mxCell id="VIZ2GZ5ep7-sa7ZNbd8o-3" value="hangtram = n / 100" style="whiteSpace=wrap;html=1;" vertex="1" parent="WIyWlLk6GJQsqaUBKTNV-1">
          <mxGeometry x="180" y="340" width="120" height="60" as="geometry" />
        </mxCell>
        <mxCell id="VIZ2GZ5ep7-sa7ZNbd8o-12" style="edgeStyle=orthogonalEdgeStyle;rounded=0;orthogonalLoop=1;jettySize=auto;html=1;entryX=0.5;entryY=0;entryDx=0;entryDy=0;" edge="1" parent="WIyWlLk6GJQsqaUBKTNV-1" source="VIZ2GZ5ep7-sa7ZNbd8o-5" target="VIZ2GZ5ep7-sa7ZNbd8o-10">
          <mxGeometry relative="1" as="geometry" />
        </mxCell>
        <mxCell id="VIZ2GZ5ep7-sa7ZNbd8o-5" value="hang chuc =(n / 10)% 10" style="whiteSpace=wrap;html=1;" vertex="1" parent="WIyWlLk6GJQsqaUBKTNV-1">
          <mxGeometry x="350" y="340" width="120" height="60" as="geometry" />
        </mxCell>
        <mxCell id="VIZ2GZ5ep7-sa7ZNbd8o-11" style="edgeStyle=orthogonalEdgeStyle;rounded=0;orthogonalLoop=1;jettySize=auto;html=1;entryX=1;entryY=0.5;entryDx=0;entryDy=0;" edge="1" parent="WIyWlLk6GJQsqaUBKTNV-1" source="VIZ2GZ5ep7-sa7ZNbd8o-8" target="VIZ2GZ5ep7-sa7ZNbd8o-10">
          <mxGeometry relative="1" as="geometry" />
        </mxCell>
        <mxCell id="VIZ2GZ5ep7-sa7ZNbd8o-8" value="hangdonvi = n % 10" style="whiteSpace=wrap;html=1;" vertex="1" parent="WIyWlLk6GJQsqaUBKTNV-1">
          <mxGeometry x="530" y="340" width="120" height="60" as="geometry" />
        </mxCell>
        <mxCell id="VIZ2GZ5ep7-sa7ZNbd8o-15" style="edgeStyle=orthogonalEdgeStyle;rounded=0;orthogonalLoop=1;jettySize=auto;html=1;" edge="1" parent="WIyWlLk6GJQsqaUBKTNV-1" source="VIZ2GZ5ep7-sa7ZNbd8o-10" target="VIZ2GZ5ep7-sa7ZNbd8o-14">
          <mxGeometry relative="1" as="geometry" />
        </mxCell>
        <mxCell id="VIZ2GZ5ep7-sa7ZNbd8o-10" value="daongc=&lt;br&gt;hangtram+&lt;div&gt;hangchuc*10+&lt;/div&gt;&lt;div&gt;hangdonvi*100&lt;/div&gt;" style="rounded=0;whiteSpace=wrap;html=1;" vertex="1" parent="WIyWlLk6GJQsqaUBKTNV-1">
          <mxGeometry x="350" y="450" width="120" height="60" as="geometry" />
        </mxCell>
        <mxCell id="VIZ2GZ5ep7-sa7ZNbd8o-17" style="edgeStyle=orthogonalEdgeStyle;rounded=0;orthogonalLoop=1;jettySize=auto;html=1;" edge="1" parent="WIyWlLk6GJQsqaUBKTNV-1" source="VIZ2GZ5ep7-sa7ZNbd8o-14" target="VIZ2GZ5ep7-sa7ZNbd8o-16">
          <mxGeometry relative="1" as="geometry" />
        </mxCell>
        <mxCell id="VIZ2GZ5ep7-sa7ZNbd8o-14" value="hiển thị daongc" style="shape=parallelogram;perimeter=parallelogramPerimeter;whiteSpace=wrap;html=1;fixedSize=1;" vertex="1" parent="WIyWlLk6GJQsqaUBKTNV-1">
          <mxGeometry x="350" y="555" width="120" height="60" as="geometry" />
        </mxCell>
        <mxCell id="VIZ2GZ5ep7-sa7ZNbd8o-16" value="END" style="ellipse;whiteSpace=wrap;html=1;" vertex="1" parent="WIyWlLk6GJQsqaUBKTNV-1">
          <mxGeometry x="350" y="660" width="120" height="80" as="geometry" />
        </mxCell>
      </root>
    </mxGraphModel>
  </diagram>
</mxfile>
